HIERARCHY
ROOT mixamorig:Hips
{
	OFFSET 0.000000 201.639420 0.000000
	CHANNELS 6 Xposition Yposition Zposition Xrotation Yrotation Zrotation
	JOINT mixamorig:Spine
	{
		OFFSET 0.006200 19.524994 -2.481800
		CHANNELS 3 Xrotation Yrotation Zrotation
		JOINT mixamorig:Spine1
		{
			OFFSET -0.000900 22.835007 -2.825400
			CHANNELS 3 Xrotation Yrotation Zrotation
			JOINT mixamorig:Spine2
			{
				OFFSET -0.020600 26.552490 -3.193300
				CHANNELS 3 Xrotation Yrotation Zrotation
				JOINT mixamorig:Neck
				{
					OFFSET -0.060000 30.701813 1.352200
					CHANNELS 3 Xrotation Yrotation Zrotation
					JOINT mixamorig:Head
					{
						OFFSET -0.087200 22.547607 3.670900
						CHANNELS 3 Xrotation Yrotation Zrotation
						JOINT mixamorig:HeadTop_End
						{
							OFFSET -0.830600 40.355194 7.893500
							CHANNELS 3 Xrotation Yrotation Zrotation
							End Site
							{
								OFFSET 0.000000 30.592346 0.000000
							}
						}
						JOINT mixamorig:RightEye
						{
							OFFSET -6.302100 18.118591 16.197100
							CHANNELS 3 Xrotation Yrotation Zrotation
							End Site
							{
								OFFSET 0.000000 30.592346 0.000000
							}
						}
						JOINT mixamorig:LeftEye
						{
							OFFSET 6.741500 18.382690 16.401899
							CHANNELS 3 Xrotation Yrotation Zrotation
							End Site
							{
								OFFSET 0.000000 30.592346 0.000000
							}
						}
					}
				}
				JOINT mixamorig:LeftShoulder
				{
					OFFSET 11.924900 18.230499 1.425400
					CHANNELS 3 Xrotation Yrotation Zrotation
					JOINT mixamorig:LeftArm
					{
						OFFSET 25.435989 -0.697632 -5.229300
						CHANNELS 3 Xrotation Yrotation Zrotation
						JOINT mixamorig:LeftForeArm
						{
							OFFSET 54.684776 0.000000 0.000000
							CHANNELS 3 Xrotation Yrotation Zrotation
							JOINT mixamorig:LeftHand
							{
								OFFSET 55.098175 0.000000 0.000000
								CHANNELS 3 Xrotation Yrotation Zrotation
								JOINT mixamorig:LeftHandMiddle1
								{
									OFFSET 23.369751 0.000000 0.000000
									CHANNELS 3 Xrotation Yrotation Zrotation
									JOINT mixamorig:LeftHandMiddle2
									{
										OFFSET 6.378677 0.000000 0.000000
										CHANNELS 3 Xrotation Yrotation Zrotation
										JOINT mixamorig:LeftHandMiddle3
										{
											OFFSET 6.148331 0.000000 0.000000
											CHANNELS 3 Xrotation Yrotation Zrotation
											JOINT mixamorig:LeftHandMiddle4
											{
												OFFSET 6.582504 0.000000 0.000000
												CHANNELS 3 Xrotation Yrotation Zrotation
												End Site
												{
													OFFSET -1.168900 6.395691 1.028606
												}
											}
										}
									}
								}
								JOINT mixamorig:LeftHandThumb1
								{
									OFFSET 7.235672 -3.848206 5.434273
									CHANNELS 3 Xrotation Yrotation Zrotation
									JOINT mixamorig:LeftHandThumb2
									{
										OFFSET 6.568451 -3.792297 3.792300
										CHANNELS 3 Xrotation Yrotation Zrotation
										JOINT mixamorig:LeftHandThumb3
										{
											OFFSET 6.063080 -3.500519 3.500518
											CHANNELS 3 Xrotation Yrotation Zrotation
											JOINT mixamorig:LeftHandThumb4
											{
												OFFSET 4.793182 -2.767334 2.767349
												CHANNELS 3 Xrotation Yrotation Zrotation
												End Site
												{
													OFFSET 0.101639 6.054260 1.275483
												}
											}
										}
									}
								}
								JOINT mixamorig:LeftHandIndex1
								{
									OFFSET 23.101074 -0.309540 4.992809
									CHANNELS 3 Xrotation Yrotation Zrotation
									JOINT mixamorig:LeftHandIndex2
									{
										OFFSET 6.226883 0.000000 0.000000
										CHANNELS 3 Xrotation Yrotation Zrotation
										JOINT mixamorig:LeftHandIndex3
										{
											OFFSET 6.094330 0.000000 0.000000
											CHANNELS 3 Xrotation Yrotation Zrotation
											JOINT mixamorig:LeftHandIndex4
											{
												OFFSET 5.482605 0.000000 0.000000
												CHANNELS 3 Xrotation Yrotation Zrotation
												End Site
												{
													OFFSET -1.427902 5.233032 0.797164
												}
											}
										}
									}
								}
								JOINT mixamorig:LeftHandRing1
								{
									OFFSET 22.299240 0.021149 -3.964172
									CHANNELS 3 Xrotation Yrotation Zrotation
									JOINT mixamorig:LeftHandRing2
									{
										OFFSET 6.321869 0.000000 0.000000
										CHANNELS 3 Xrotation Yrotation Zrotation
										JOINT mixamorig:LeftHandRing3
										{
											OFFSET 5.899796 0.000000 0.000000
											CHANNELS 3 Xrotation Yrotation Zrotation
											JOINT mixamorig:LeftHandRing4
											{
												OFFSET 6.517899 0.000000 0.000000
												CHANNELS 3 Xrotation Yrotation Zrotation
												End Site
												{
													OFFSET -1.637299 6.232208 0.980890
												}
											}
										}
									}
								}
								JOINT mixamorig:LeftHandPinky1
								{
									OFFSET 20.463791 -0.302338 -8.562233
									CHANNELS 3 Xrotation Yrotation Zrotation
									JOINT mixamorig:LeftHandPinky2
									{
										OFFSET 6.908646 0.000000 0.000000
										CHANNELS 3 Xrotation Yrotation Zrotation
										JOINT mixamorig:LeftHandPinky3
										{
											OFFSET 4.622849 0.000000 0.000000
											CHANNELS 3 Xrotation Yrotation Zrotation
											JOINT mixamorig:LeftHandPinky4
											{
												OFFSET 5.216080 0.000000 0.000000
												CHANNELS 3 Xrotation Yrotation Zrotation
												End Site
												{
													OFFSET -0.606308 5.116241 0.814926
												}
											}
										}
									}
								}
							}
						}
					}
				}
				JOINT mixamorig:RightShoulder
				{
					OFFSET -12.001300 18.284088 1.348900
					CHANNELS 3 Xrotation Yrotation Zrotation
					JOINT mixamorig:RightArm
					{
						OFFSET -25.308500 -0.751312 -5.164599
						CHANNELS 3 Xrotation Yrotation Zrotation
						JOINT mixamorig:RightForeArm
						{
							OFFSET -54.684429 0.000000 0.000000
							CHANNELS 3 Xrotation Yrotation Zrotation
							JOINT mixamorig:RightHand
							{
								OFFSET -55.150291 0.000000 0.000000
								CHANNELS 3 Xrotation Yrotation Zrotation
								JOINT mixamorig:RightHandMiddle1
								{
									OFFSET -23.317566 0.000000 0.000000
									CHANNELS 3 Xrotation Yrotation Zrotation
									JOINT mixamorig:RightHandMiddle2
									{
										OFFSET -6.378403 0.000000 0.000000
										CHANNELS 3 Xrotation Yrotation Zrotation
										JOINT mixamorig:RightHandMiddle3
										{
											OFFSET -6.148193 0.000000 0.000000
											CHANNELS 3 Xrotation Yrotation Zrotation
											JOINT mixamorig:RightHandMiddle4
											{
												OFFSET -6.583389 0.000000 0.000000
												CHANNELS 3 Xrotation Yrotation Zrotation
												End Site
												{
													OFFSET 1.171692 6.395905 1.029786
												}
											}
										}
									}
								}
								JOINT mixamorig:RightHandThumb1
								{
									OFFSET -7.190521 -3.860474 5.435846
									CHANNELS 3 Xrotation Yrotation Zrotation
									JOINT mixamorig:RightHandThumb2
									{
										OFFSET -6.567429 -3.791718 3.791708
										CHANNELS 3 Xrotation Yrotation Zrotation
										JOINT mixamorig:RightHandThumb3
										{
											OFFSET -6.062469 -3.500153 3.500166
											CHANNELS 3 Xrotation Yrotation Zrotation
											JOINT mixamorig:RightHandThumb4
											{
												OFFSET -4.792618 -2.767029 2.767022
												CHANNELS 3 Xrotation Yrotation Zrotation
												End Site
												{
													OFFSET -0.100327 6.053253 1.276754
												}
											}
										}
									}
								}
								JOINT mixamorig:RightHandIndex1
								{
									OFFSET -23.048981 -0.310791 4.992554
									CHANNELS 3 Xrotation Yrotation Zrotation
									JOINT mixamorig:RightHandIndex2
									{
										OFFSET -6.227539 0.000000 0.000000
										CHANNELS 3 Xrotation Yrotation Zrotation
										JOINT mixamorig:RightHandIndex3
										{
											OFFSET -6.095047 0.000000 0.000000
											CHANNELS 3 Xrotation Yrotation Zrotation
											JOINT mixamorig:RightHandIndex4
											{
												OFFSET -5.484772 0.000000 0.000000
												CHANNELS 3 Xrotation Yrotation Zrotation
												End Site
												{
													OFFSET 1.420593 5.237305 0.797056
												}
											}
										}
									}
								}
								JOINT mixamorig:RightHandRing1
								{
									OFFSET -22.246323 0.020569 -3.963762
									CHANNELS 3 Xrotation Yrotation Zrotation
									JOINT mixamorig:RightHandRing2
									{
										OFFSET -6.322128 0.000000 0.000000
										CHANNELS 3 Xrotation Yrotation Zrotation
										JOINT mixamorig:RightHandRing3
										{
											OFFSET -5.900024 0.000000 0.000000
											CHANNELS 3 Xrotation Yrotation Zrotation
											JOINT mixamorig:RightHandRing4
											{
												OFFSET -6.518356 0.000000 0.000000
												CHANNELS 3 Xrotation Yrotation Zrotation
												End Site
												{
													OFFSET 1.636398 6.232697 0.982186
												}
											}
										}
									}
								}
								JOINT mixamorig:RightHandPinky1
								{
									OFFSET -20.411011 -0.303314 -8.561701
									CHANNELS 3 Xrotation Yrotation Zrotation
									JOINT mixamorig:RightHandPinky2
									{
										OFFSET -6.907349 0.000000 0.000000
										CHANNELS 3 Xrotation Yrotation Zrotation
										JOINT mixamorig:RightHandPinky3
										{
											OFFSET -4.623840 0.000000 0.000000
											CHANNELS 3 Xrotation Yrotation Zrotation
											JOINT mixamorig:RightHandPinky4
											{
												OFFSET -5.218353 0.000000 0.000000
												CHANNELS 3 Xrotation Yrotation Zrotation
												End Site
												{
													OFFSET 0.602097 5.118835 0.816273
												}
											}
										}
									}
								}
							}
						}
					}
				}
			}
		}
	}
	JOINT mixamorig:LeftUpLeg
	{
		OFFSET 18.168400 -13.561905 -0.039000
		CHANNELS 3 Xrotation Yrotation Zrotation
		JOINT mixamorig:LeftLeg
		{
			OFFSET 0.577358 -80.825211 -3.695000
			CHANNELS 3 Xrotation Yrotation Zrotation
			JOINT mixamorig:LeftFoot
			{
				OFFSET -0.577356 -83.370262 -6.520700
				CHANNELS 3 Xrotation Yrotation Zrotation
				JOINT mixamorig:LeftToeBase
				{
					OFFSET 0.750401 -20.798306 25.135401
					CHANNELS 3 Xrotation Yrotation Zrotation
					JOINT mixamorig:LeftToe_End
					{
						OFFSET -0.000500 0.001200 19.917799
						CHANNELS 3 Xrotation Yrotation Zrotation
						End Site
						{
							OFFSET 0.000000 19.917805 0.000000
						}
					}
				}
			}
		}
	}
	JOINT mixamorig:RightUpLeg
	{
		OFFSET -18.162500 -13.585098 -0.041000
		CHANNELS 3 Xrotation Yrotation Zrotation
		JOINT mixamorig:RightLeg
		{
			OFFSET -0.595024 -80.945297 -3.631900
			CHANNELS 3 Xrotation Yrotation Zrotation
			JOINT mixamorig:RightFoot
			{
				OFFSET 0.595024 -83.218193 -6.561200
				CHANNELS 3 Xrotation Yrotation Zrotation
				JOINT mixamorig:RightToeBase
				{
					OFFSET -0.753601 -20.807106 25.115000
					CHANNELS 3 Xrotation Yrotation Zrotation
					JOINT mixamorig:RightToe_End
					{
						OFFSET 0.000299 0.001700 19.918200
						CHANNELS 3 Xrotation Yrotation Zrotation
						End Site
						{
							OFFSET 0.000000 19.918203 0.000000
						}
					}
				}
			}
		}
	}
}
MOTION
Frames: 4
Frame Time: 0.033333
0.374752 200.312576 -0.375875 -3.757036 -5.224827 -3.508394 3.303683 1.535827 2.486575 1.151890 0.328520 1.553622 1.126015 0.351591 1.556861 5.626313 -0.078963 0.455689 -7.563347 1.375680 -0.080828 -0.000000 -0.000000 0.000000 -0.000000 -0.000000 0.000000 -0.000000 -0.000000 0.000000 1.048173 -17.442416 -12.319476 3.913174 -19.990326 -69.766305 0.000003 -1.459362 -0.000001 -33.230383 -1.364812 -6.186617 -0.076595 2.664767 -15.696909 0.268813 1.755894 -17.406486 0.300559 1.854073 -18.414289 -0.000000 -0.000000 0.000002 -0.663009 2.160317 4.832492 11.855690 25.421848 17.059822 -13.812686 3.542427 9.037264 0.000000 -0.000002 -0.000003 0.027448 -0.970534 -7.593928 0.267866 1.752890 -17.375725 0.057681 0.820955 -8.038001 -0.000002 -0.000001 -0.000001 0.133802 3.633757 -21.134224 0.386574 2.094666 -20.910542 0.282998 1.800501 -17.863682 -0.000000 -0.000000 0.000003 0.924886 5.569903 -27.126714 0.268792 1.755841 -17.405880 0.241907 1.667703 -16.505909 0.000000 -0.000001 0.000002 1.205219 15.344172 14.705961 13.158848 27.555123 58.785184 -0.000008 6.693738 0.000011 -20.179089 -0.514094 6.782768 -0.136221 -2.205106 14.998882 0.214451 -1.398357 17.436874 0.239773 -1.476521 18.446282 0.000001 -0.000001 0.000003 -1.665251 -0.174475 -4.219004 12.710943 -29.825326 -16.130950 -15.549421 -3.559399 -12.707139 0.000002 0.000000 -0.000001 0.038558 1.262293 6.823728 0.213726 -1.396021 17.407041 0.046017 -0.653843 8.053234 -0.000000 0.000000 0.000001 0.030607 -3.075760 20.451036 0.308435 -1.668279 20.948537 0.225827 -1.434043 17.897099 -0.000001 0.000004 0.000002 0.748878 -4.885243 26.473777 0.214461 -1.398378 17.437241 0.193013 -1.328187 16.535818 -0.000001 0.000000 -0.000001 -13.011331 14.272485 10.838086 13.096633 2.089978 4.216067 2.619486 0.417982 -7.303407 -4.935671 -0.000002 -0.000001 -0.000000 0.000001 0.000000 -0.244488 -10.387903 3.108777 6.110889 -9.762634 -3.278326 -1.641140 -1.557793 2.851864 -7.282877 -0.000002 0.000000 -0.000000 -0.000000 0.000000 
0.378908 200.304886 -0.372489 -3.761573 -5.211131 -3.507392 3.303700 1.535792 2.486053 1.151890 0.328520 1.553622 1.126014 0.351591 1.556861 5.607579 -0.078963 0.455690 -7.618386 1.393318 -0.080956 -0.000000 0.000000 0.000000 -0.000000 0.000000 0.000000 -0.000000 0.000000 0.000000 1.061329 -17.442251 -12.259705 3.901659 -20.022464 -69.829873 -0.000012 -1.459366 0.000007 -33.249443 -1.348980 -6.247465 -0.076597 2.664761 -15.696929 0.268814 1.755896 -17.406483 0.300560 1.854071 -18.414281 -0.000000 0.000000 -0.000001 -0.663008 2.160315 4.832486 11.855707 25.421850 17.059804 -13.812699 3.542429 9.037287 0.000000 0.000001 -0.000004 0.027450 -0.970538 -7.593858 0.267874 1.752889 -17.375725 0.057680 0.820949 -8.038020 0.000000 0.000001 -0.000000 0.133800 3.633757 -21.134205 0.386570 2.094664 -20.910552 0.282999 1.800500 -17.863690 0.000000 -0.000001 0.000002 0.924881 5.569896 -27.126706 0.268796 1.755844 -17.405875 0.241907 1.667704 -16.505902 -0.000002 0.000000 0.000001 1.204206 15.374324 14.680460 13.210473 27.553383 58.777603 -0.000007 6.748597 0.000010 -20.222585 -0.479352 6.774533 -0.136228 -2.205107 14.998885 0.214450 -1.398356 17.436872 0.239772 -1.476520 18.446285 0.000001 0.000000 0.000002 -1.665254 -0.174475 -4.219004 12.710944 -29.825322 -16.130950 -15.549423 -3.559401 -12.707136 -0.000004 0.000001 0.000000 0.038555 1.262292 6.823729 0.213726 -1.396021 17.407044 0.046016 -0.653845 8.053234 0.000003 -0.000001 -0.000001 0.030602 -3.075760 20.451039 0.308445 -1.668281 20.948533 0.225823 -1.434040 17.897093 -0.000000 -0.000000 -0.000004 0.748875 -4.885242 26.473781 0.214452 -1.398377 17.437239 0.193011 -1.328188 16.535813 0.000001 -0.000000 0.000001 -13.013195 14.272124 10.838171 13.123197 2.089732 4.215994 2.580485 0.418257 -7.290689 -4.935674 0.000004 -0.000000 -0.000000 0.000000 -0.000000 -0.268165 -10.387743 3.109422 6.178895 -9.774089 -3.278360 -1.681428 -1.569409 2.852994 -7.293308 0.000026 0.000004 -0.000000 0.000000 0.000000 
0.384302 200.296265 -0.364938 -3.776612 -5.194414 -3.507266 3.303708 1.535749 2.485656 1.151890 0.328520 1.553622 1.126014 0.351591 1.556861 5.600027 -0.075284 0.455692 -7.625765 1.432240 -0.092239 0.000000 0.000000 -0.000000 0.000000 0.000000 -0.000000 0.000000 0.000000 -0.000000 1.083822 -17.453927 -12.107857 3.853809 -20.046516 -69.984823 -0.000001 -1.459364 0.000004 -33.264852 -1.331630 -6.310279 -0.076480 2.666981 -15.718089 0.268810 1.755895 -17.406486 0.300553 1.854070 -18.414279 -0.000001 -0.000001 0.000001 -0.650820 2.178329 4.821464 11.854160 25.431820 17.061734 -13.812701 3.542422 9.037297 0.000003 0.000002 0.000001 0.025501 -0.967078 -7.627463 0.268368 1.754481 -17.391982 0.057913 0.822582 -8.054019 -0.000001 0.000000 -0.000001 0.134093 3.635080 -21.147331 0.386575 2.094663 -20.910571 0.282996 1.800499 -17.863687 -0.000001 -0.000001 0.000005 0.926769 5.572818 -27.160280 0.268792 1.755837 -17.405880 0.241908 1.667710 -16.505888 -0.000002 -0.000001 0.000003 1.219256 15.432220 14.566693 13.286346 27.564641 58.819745 0.000000 6.853317 -0.000010 -20.304518 -0.432279 6.759450 -0.136223 -2.205107 14.998884 0.214448 -1.398355 17.436872 0.239769 -1.476523 18.446282 -0.000001 -0.000004 0.000001 -1.665255 -0.174475 -4.219004 12.710944 -29.825322 -16.130948 -15.549424 -3.559402 -12.707141 -0.000005 0.000001 0.000000 0.038552 1.262293 6.823731 0.213725 -1.396020 17.407039 0.046024 -0.653846 8.053231 -0.000003 -0.000001 0.000000 0.030602 -3.075761 20.451041 0.308443 -1.668279 20.948537 0.225822 -1.434040 17.897092 -0.000001 0.000001 0.000002 0.748878 -4.885243 26.473779 0.214454 -1.398379 17.437241 0.193010 -1.328186 16.535816 0.000001 -0.000002 0.000001 -13.012085 14.271785 10.838219 13.154198 2.084209 4.215905 2.533794 0.418539 -7.277107 -4.935675 0.000006 0.000001 0.000000 0.000000 0.000000 -0.284304 -10.387757 3.109810 6.251411 -9.753171 -3.282436 -1.721369 -1.613362 2.857284 -7.303108 0.000000 0.000002 -0.000000 -0.000001 0.000000 
0.390363 200.287781 -0.347177 -3.800713 -5.181686 -3.508500 3.303712 1.535667 2.485540 1.140425 0.328520 1.553622 1.114539 0.351591 1.556862 5.594790 -0.049223 0.443118 -7.521787 1.588428 -0.134391 -0.000000 0.000000 -0.000000 -0.000000 0.000000 -0.000000 -0.000000 0.000000 -0.000000 1.117711 -17.469910 -11.874727 3.766550 -20.047635 -70.227110 0.000007 -1.449799 0.000009 -33.252243 -1.311952 -6.316670 -0.076250 2.671546 -15.761580 0.268813 1.755895 -17.406474 0.300558 1.854070 -18.414279 -0.000000 -0.000000 -0.000001 -0.646195 2.189283 4.820232 11.865965 25.459141 17.064705 -13.812693 3.542424 9.037285 -0.000001 -0.000001 -0.000005 0.024052 -0.949272 -7.679594 0.267872 1.752900 -17.375808 0.057681 0.820966 -8.038085 -0.000001 0.000001 -0.000001 0.134702 3.637866 -21.174855 0.386575 2.094663 -20.910587 0.283003 1.800504 -17.863692 -0.000001 0.000001 0.000006 0.929423 5.576934 -27.207586 0.268794 1.755833 -17.405902 0.241910 1.667707 -16.505878 -0.000001 -0.000001 -0.000000 1.245068 15.501633 14.388557 13.408631 27.579508 58.870302 -0.000007 7.024685 0.000014 -20.446574 -0.364720 6.719915 -0.136219 -2.205107 14.998882 0.214444 -1.398355 17.436872 0.239768 -1.476519 18.446278 0.000003 0.000001 0.000001 -1.665251 -0.174475 -4.219003 12.710937 -29.825332 -16.130953 -15.549426 -3.559400 -12.707138 -0.000003 0.000002 -0.000003 0.038559 1.262293 6.823732 0.213727 -1.396021 17.407039 0.046021 -0.653845 8.053238 -0.000001 0.000000 -0.000002 0.030608 -3.075761 20.451041 0.308438 -1.668278 20.948532 0.225821 -1.434040 17.897095 -0.000001 0.000002 0.000001 0.748881 -4.885242 26.473776 0.214459 -1.398378 17.437244 0.193009 -1.328184 16.535816 -0.000001 0.000000 -0.000002 -12.995692 14.271525 10.838314 13.184959 2.079248 4.215816 2.483532 0.418530 -7.273353 -4.935669 -0.000004 -0.000000 0.000000 0.000000 0.000000 -0.282247 -10.377744 3.110868 6.310179 -9.705033 -3.299750 -1.754704 -1.685158 2.875181 -7.311712 0.000000 0.000000 0.000000 -0.000001 -0.000000 
